# xmcd
#
# Track frame offsets: 
#        150
#        24272
#        45728
#        63162
#        90069
#        129203
#        154961
#        172386
#        205789
#        227186
#        240377
#        256875
#        261218
#        274994
#
# Disc length: 3901 seconds
#
# Revision: 1
# Processed by: cddbd v1.5.2PL0 Copyright (c) Steve Scherf et al.
# Submitted via: ExactAudioCopy v0.99pb5
#
DISCID=b50f3b0e
DTITLE=Screamin'  Jay Hawkins With The Chicken Hawks - Live At The Mer
DTITLE=idien - Paris, 16 et 17 juin 1988
DYEAR=1988
DGENRE=Blues
TTITLE0=Lawdy Miss Clawdy
TTITLE1=The Whammy
TTITLE2=Hong Kong
TTITLE3=Yellow Coat
TTITLE4=Ain't It A Shame
TTITLE5=Alligator Wine
TTITLE6=I Put A Spell On You
TTITLE7=Little Bitty Pretty One
TTITLE8=Constipation Blues
TTITLE9=Goodnight Sweetheart
TTITLE10=Tutti Frutti
TTITLE11=Jay Hawkins Introduction
TTITLE12=In Spite Of It All
TTITLE13=What A Price I Must Pay
EXTD=screamin jay hawkins live\n
EXTT0=
EXTT1=
EXTT2=
EXTT3=
EXTT4=
EXTT5=
EXTT6=
EXTT7=
EXTT8=
EXTT9=
EXTT10=
EXTT11=
EXTT12=
EXTT13=
PLAYORDER=
